<svg width="98" height="16" viewBox="0 0 98 16" fill="none" xmlns="http://www.w3.org/2000/svg">
<path d="M5.23102 15V3.04H0.391016V0.899999H12.631V3.04H7.79102V15H5.23102ZM13.8529 3.12V0.68H16.6529V3.12H13.8529ZM14.0129 15V5.22H16.5129V15H14.0129ZM19.1505 15V5.22H21.5905V6.72C21.8839 6.18667 22.2905 5.77333 22.8105 5.48C23.3305 5.17333 23.9305 5.02 24.6105 5.02C26.0772 5.02 27.0372 5.66 27.4905 6.94C27.7972 6.34 28.2372 5.87333 28.8105 5.54C29.3839 5.19333 30.0372 5.02 30.7705 5.02C32.9705 5.02 34.0705 6.36 34.0705 9.04V15H31.5705V9.14C31.5705 8.39333 31.4439 7.84667 31.1905 7.5C30.9505 7.15333 30.5372 6.98 29.9505 6.98C29.2972 6.98 28.7839 7.21333 28.4105 7.68C28.0372 8.13333 27.8505 8.76667 27.8505 9.58V15H25.3505V9.14C25.3505 8.39333 25.2239 7.84667 24.9705 7.5C24.7305 7.15333 24.3239 6.98 23.7505 6.98C23.0972 6.98 22.5839 7.21333 22.2105 7.68C21.8372 8.13333 21.6505 8.76667 21.6505 9.58V15H19.1505ZM42.2896 15.2C41.5696 15.2 40.9229 15.04 40.3496 14.72C39.7896 14.4 39.3696 13.9667 39.0896 13.42V15H36.6496V0.899999H39.1496V6.66C39.4429 6.16667 39.8629 5.77333 40.4096 5.48C40.9696 5.17333 41.5963 5.02 42.2896 5.02C43.1563 5.02 43.9096 5.22667 44.5496 5.64C45.1896 6.05333 45.6896 6.64 46.0496 7.4C46.4096 8.14667 46.5896 9.04667 46.5896 10.1C46.5896 11.14 46.4096 12.0467 46.0496 12.82C45.6896 13.58 45.1829 14.1667 44.5296 14.58C43.8896 14.9933 43.1429 15.2 42.2896 15.2ZM41.5896 13.3C42.3363 13.3 42.9363 13.0333 43.3896 12.5C43.8429 11.9533 44.0696 11.1533 44.0696 10.1C44.0696 9.03333 43.8429 8.24 43.3896 7.72C42.9363 7.18667 42.3363 6.92 41.5896 6.92C40.8429 6.92 40.2429 7.18667 39.7896 7.72C39.3363 8.24 39.1096 9.03333 39.1096 10.1C39.1096 11.1533 39.3363 11.9533 39.7896 12.5C40.2429 13.0333 40.8429 13.3 41.5896 13.3ZM52.1818 15.2C49.7818 15.2 48.5818 13.8533 48.5818 11.16V5.22H51.0818V11.2C51.0818 11.8933 51.2218 12.4067 51.5018 12.74C51.7818 13.0733 52.2285 13.24 52.8418 13.24C53.5085 13.24 54.0551 13.0133 54.4818 12.56C54.9085 12.0933 55.1218 11.48 55.1218 10.72V5.22H57.6218V15H55.1818V13.54C54.5285 14.6467 53.5285 15.2 52.1818 15.2Z" fill="#DC1250"/>
<path d="M60.6038 15V0.899999H62.3438L67.5638 10.64L72.7638 0.899999H74.4638V15H72.6038V4.66L68.1838 12.84H66.9238L62.4838 4.7V15H60.6038ZM82.1504 15.18C80.5504 15.18 79.2904 14.7333 78.3704 13.84C77.4504 12.9333 76.9904 11.7 76.9904 10.14C76.9904 9.14 77.1904 8.26 77.5904 7.5C78.0037 6.72667 78.5704 6.12667 79.2904 5.7C80.0104 5.27333 80.8371 5.06 81.7704 5.06C83.1171 5.06 84.1771 5.49333 84.9504 6.36C85.7237 7.21333 86.1104 8.39333 86.1104 9.9V10.58H78.9504C79.0971 12.6067 80.1704 13.62 82.1704 13.62C82.7304 13.62 83.2771 13.5333 83.8104 13.36C84.3571 13.1867 84.8704 12.9 85.3504 12.5L85.9504 13.9C85.5104 14.3 84.9437 14.6133 84.2504 14.84C83.5571 15.0667 82.8571 15.18 82.1504 15.18ZM81.8504 6.48C81.0104 6.48 80.3437 6.74 79.8504 7.26C79.3571 7.78 79.0571 8.47333 78.9504 9.34H84.4104C84.3704 8.43333 84.1304 7.73333 83.6904 7.24C83.2504 6.73333 82.6371 6.48 81.8504 6.48ZM92.0326 15.18C91.1792 15.18 90.4259 14.98 89.7726 14.58C89.1326 14.1667 88.6326 13.58 88.2726 12.82C87.9126 12.06 87.7326 11.16 87.7326 10.12C87.7326 9.08 87.9126 8.18667 88.2726 7.44C88.6326 6.68 89.1326 6.09333 89.7726 5.68C90.4126 5.26667 91.1659 5.06 92.0326 5.06C92.7659 5.06 93.4192 5.22 93.9926 5.54C94.5659 5.86 94.9926 6.29333 95.2726 6.84V0.899999H97.2926V15H95.3126V13.3C95.0326 13.8867 94.5992 14.3467 94.0126 14.68C93.4392 15.0133 92.7792 15.18 92.0326 15.18ZM92.5526 13.62C93.3792 13.62 94.0459 13.32 94.5526 12.72C95.0592 12.12 95.3126 11.2533 95.3126 10.12C95.3126 8.98667 95.0592 8.12667 94.5526 7.54C94.0459 6.94 93.3792 6.64 92.5526 6.64C91.7126 6.64 91.0392 6.94 90.5326 7.54C90.0259 8.12667 89.7726 8.98667 89.7726 10.12C89.7726 11.2533 90.0259 12.12 90.5326 12.72C91.0392 13.32 91.7126 13.62 92.5526 13.62Z" fill="#828282"/>
</svg>
